#!OML:ASF H:\Terrain\Patient Classification 1\Animal2\Wednesday\Animal2.ASF
:FULLY-SPECIFIED
:DEGREES
1502
root 10.0286 15.9137 -18.9876 27.511 -8.30755 -3.03777
lowerback 26.5856 -3.5961 -0.260711
upperback 12.5407 -4.59967 1.45578
thorax -0.580296 -2.37654 2.92029
lowerneck 9.50146 11.0904 17.6144
upperneck -13.0554 14.7841 -26.2705
head -1.77695 8.40416 -11.5683
rclavicle 1.90833e-014 -1.74931e-014
rhumerus -34.1793 -3.15327 -81.795
rradius 117.588
rwrist -26.0119
rhand -10.8028 20.6113
rfingers 7.12502
rthumb 15.2105 -8.80953
lclavicle 1.90833e-014 -1.74931e-014
lhumerus -346.972 0.150384 406.292
lradius 65.7821
lwrist 30.9646
lhand -26.1927 36.924
lfingers 7.12502
lthumb 0.359652 66.9034
rfemur -53.9682 2.27057 -6.156
rtibia 42.3857
rfoot -19.8644 -6.02096
rtoes -32.8494
lfemur -52.4137 10.3507 3.51544
ltibia 54.7338
lfoot -21.3394 3.54282
ltoes -40.7696
1503
root 10.0639 15.907 -18.9879 27.3937 -8.28017 -3.26771
lowerback 27.0125 -3.62007 -0.325529
upperback 12.5571 -4.64385 1.30929
thorax -0.765741 -2.39344 2.83761
lowerneck 9.68517 11.1468 17.68
upperneck -13.1416 14.903 -26.0224
head -1.82615 8.45502 -11.5042
rclavicle -4.29375e-014 8.74653e-015
rhumerus -35.6489 -3.13104 -82.2629
rradius 117.573
rwrist -26.7578
rhand -11.2749 20.4544
rfingers 7.12502
rthumb 14.7557 -9.00035
lclavicle -4.29375e-014 8.74653e-015
lhumerus -346.745 0.857796 406.642
lradius 67.1494
lwrist 33.7039
lhand -29.4758 35.7548
lfingers 7.12502
lthumb -2.81122 65.716
rfemur -53.7579 2.54652 -6.09649
rtibia 42.2749
rfoot -19.9149 -6.52609
rtoes -33.8814
lfemur -52.3554 10.4058 3.62194
ltibia 54.9736
lfoot -21.7928 3.59175
ltoes -40.4497
1504
root 10.0996 15.896 -18.9903 27.4729 -8.19248 -3.50103
lowerback 27.1693 -3.65257 -0.331926
upperback 12.5769 -4.68795 1.19569
thorax -0.823994 -2.41048 2.73928
lowerneck 9.81719 11.1616 17.7285
upperneck -13.3931 14.9313 -25.8437
head -1.92745 8.46644 -11.4755
rclavicle -5.08889e-014 4.92986e-014
rhumerus -36.9044 -2.93157 -82.6868
rradius 117.436
rwrist -27.684
rhand -11.9623 20.3466
rfingers 7.12502
rthumb 14.0933 -9.15544
lclavicle -5.08889e-014 4.92986e-014
lhumerus -346.517 1.63053 407.126
lradius 68.6686
lwrist 35.3894
lhand -30.9073 36.2545
lfingers 7.12502
lthumb -4.19365 66.193
rfemur -53.7452 2.62819 -6.01393
rtibia 42.1618
rfoot -19.8587 -6.85469
rtoes -35.0217
lfemur -52.5717 10.4923 3.7224
ltibia 55.2163
lfoot -22.1059 3.74412
ltoes -40.2206
1505
root 10.1343 15.8826 -18.9908 27.6769 -8.04052 -3.48221
lowerback 27.0034 -3.69709 -0.495669
upperback 12.5906 -4.78409 1.09495
thorax -0.723684 -2.46107 2.73548
lowerneck 10.0543 11.1343 17.7893
upperneck -13.7449 14.8945 -25.7962
head -2.07524 8.46086 -11.5158
rclavicle 4.77083e-015 -1.03368e-014
rhumerus -38.1384 -2.58463 -82.9697
rradius 117.286
rwrist -28.4315
rhand -12.8981 20.2928
rfingers 7.12502
rthumb 13.1914 -9.26989
lclavicle 4.77083e-015 -1.03368e-014
lhumerus -346.301 2.28652 407.673
lradius 70.2956
lwrist 36.8373
lhand -31.6328 37.2175
lfingers 7.12502
lthumb -4.89422 67.141
rfemur -53.8149 2.35894 -6.11743
rtibia 42.0431
rfoot -19.7566 -6.56688
rtoes -34.0363
lfemur -53.0409 10.5169 3.51978
ltibia 55.4398
lfoot -22.1686 4.64696
ltoes -42.6703
1506
root 10.1691 15.8717 -18.9892 27.8021 -7.98721 -3.52047
lowerback 26.8508 -3.65183 -0.648789
upperback 12.6608 -4.76723 0.999623
thorax -0.571865 -2.45835 2.70029
lowerneck 10.0518 11.1335 17.7247
upperneck -13.919 14.8825 -25.5718
head -2.15545 8.4447 -11.441
rclavicle -4.92986e-014 1.82882e-014
rhumerus -39.2043 -2.21998 -83.1721
rradius 116.971
rwrist -29.0926
rhand -13.7507 20.3186
rfingers 7.12502
rthumb 12.3695 -9.29542
lclavicle -4.92986e-014 1.82882e-014
lhumerus -345.765 2.83013 408.19
lradius 71.6831
lwrist 38.1584
lhand -31.6518 37.0721
lfingers 7.12502
lthumb -4.91248 66.9952
rfemur -53.8408 2.14009 -6.13944
rtibia 41.9134
rfoot -19.766 -6.12346
rtoes -32.9107
lfemur -53.3705 10.5527 3.37896
ltibia 55.6718
lfoot -22.2586 5.41955
ltoes -44.7319
1507
root 10.2016 15.8667 -18.9879 27.7725 -7.9104 -3.6385
lowerback 26.9637 -3.63019 -0.713499
upperback 12.7305 -4.75727 0.909261
thorax -0.549478 -2.45386 2.64066
lowerneck 9.87915 11.1801 17.411
upperneck -13.9268 14.9139 -25.1166
head -2.19517 8.43334 -11.2194
rclavicle -6.36111e-015 -6.36111e-015
rhumerus -40.0784 -1.64191 -83.5071
rradius 116.405
rwrist -29.5864
rhand -14.2374 20.6395
rfingers 7.12502
rthumb 11.9002 -9.00235
lclavicle -6.36111e-015 -6.36111e-015
lhumerus -345.303 3.35467 408.812
lradius 73.007
lwrist 39.3679
lhand -31.1696 36.0405
lfingers 7.12502
lthumb -4.44694 65.9739
rfemur -53.6964 2.13757 -6.09938
rtibia 41.7858
rfoot -19.761 -6.19019
rtoes -33.3984
lfemur -53.4855 10.5162 3.40017
ltibia 55.8858
lfoot -22.5803 5.30729
ltoes -44.3917
1508
root 10.231 15.8587 -18.9867 27.7492 -7.62973 -3.85655
lowerback 27.1451 -3.6832 -0.610777
upperback 12.7847 -4.79788 0.878297
thorax -0.581347 -2.46775 2.56951
lowerneck 9.71775 11.1868 17.1783
upperneck -13.9107 14.8963 -24.7849
head -2.22091 8.40283 -11.0574
rclavicle -1.74931e-014 -7.95139e-015
rhumerus -40.8424 -0.932758 -83.7638
rradius 115.651
rwrist -29.9633
rhand -14.2926 21.2911
rfingers 7.12502
rthumb 11.8469 -8.35377
lclavicle -1.74931e-014 -7.95139e-015
lhumerus -345.118 3.6982 409.402
lradius 74.6007
lwrist 40.49
lhand -31.3951 35.7595
lfingers 7.12502
lthumb -4.66465 65.6881
rfemur -53.4665 2.23761 -5.97059
rtibia 41.6748
rfoot -19.6495 -6.63583
rtoes -33.8174
lfemur -53.6382 10.4187 3.62182
ltibia 56.077
lfoot -22.9401 4.88548
ltoes -43.1242
1509
root 10.259 15.8471 -18.9865 27.8386 -7.24287 -4.16266
lowerback 27.1459 -3.71159 -0.325005
upperback 12.8672 -4.76797 0.84224
thorax -0.517509 -2.44002 2.35806
lowerneck 9.42678 11.0989 17.4702
upperneck -13.7782 14.8022 -24.7467
head -2.13279 8.32248 -11.0639
rclavicle 7.63333e-014 -4.45278e-014
rhumerus -41.5181 -0.288113 -83.5869
rradius 114.902
rwrist -30.6599
rhand -14.1826 21.8371
rfingers 7.12502
rthumb 11.953 -7.80162
lclavicle 7.63333e-014 -4.45278e-014
lhumerus -344.782 3.54337 409.66
lradius 76.2793
lwrist 41.4612
lhand -32.0286 35.6317
lfingers 7.12502
lthumb -5.27631 65.546
rfemur -53.3254 2.34388 -5.76808
rtibia 41.6061
rfoot -19.639 -6.99767
rtoes -33.6094
lfemur -53.9498 10.3052 3.99289
ltibia 56.2746
lfoot -23.2167 4.60573
ltoes -42.1929
1510
root 10.2857 15.8372 -18.9869 27.9453 -7.0345 -4.1033
lowerback 27.0587 -3.70505 -0.402549
upperback 12.7931 -4.77954 0.700567
thorax -0.568213 -2.44025 2.24916
lowerneck 9.72151 10.9645 17.6606
upperneck -13.8968 14.6851 -24.575
head -2.24495 8.25717 -11.0802
rclavicle -4.77083e-014 1.82882e-014
rhumerus -42.3005 0.49557 -83.6003
rradius 114.049
rwrist -31.2241
rhand -14.0143 22.2028
rfingers 7.12502
rthumb 12.1153 -7.42645
lclavicle -4.77083e-014 1.82882e-014
lhumerus -344.491 3.19622 409.583
lradius 77.73
lwrist 42.6
lhand -30.8109 34.3414
lfingers 7.12502
lthumb -4.10052 64.2816
rfemur -53.3011 2.30992 -5.98522
rtibia 41.5875
rfoot -19.7332 -7.08691
rtoes -33.2047
lfemur -54.2738 10.052 3.95403
ltibia 56.4669
lfoot -23.5502 4.41119
ltoes -41.547
1511
root 10.3092 15.8236 -18.9861 28.1013 -6.92201 -4.12597
lowerback 26.8652 -3.6342 -0.452247
upperback 12.7524 -4.70837 0.544575
thorax -0.539211 -2.40028 2.0793
lowerneck 9.87945 10.8651 17.555
upperneck -14.1817 14.5662 -24.1026
head -2.43623 8.17839 -10.9475
rclavicle -5.24792e-014 5.1684e-014
rhumerus -43.0346 1.38289 -83.5359
rradius 113.227
rwrist -31.805
rhand -13.7101 22.5575
rfingers 7.12502
rthumb 12.4086 -7.05422
lclavicle -5.24792e-014 5.1684e-014
lhumerus -343.891 2.92843 409.063
lradius 78.9758
lwrist 44.1916
lhand -28.9964 32.9892
lfingers 7.12502
lthumb -2.34822 62.956
rfemur -53.3967 2.203 -6.05953
rtibia 41.6024
rfoot -19.7842 -7.08675
rtoes -33.1129
lfemur -54.6103 10.0155 3.93165
ltibia 56.7016
lfoot -23.8385 4.21318
ltoes -41.1631
1512
root 10.3263 15.8088 -18.9846 28.1383 -6.7847 -4.41958
lowerback 26.84 -3.45353 -0.393814
upperback 12.7386 -4.47128 0.52593
thorax -0.558892 -2.28058 1.96408
lowerneck 9.8659 10.6723 17.4677
upperneck -14.208 14.3211 -23.6862
head -2.54359 8.02674 -10.8145
rclavicle -3.33958e-014 2.78299e-014
rhumerus -43.6728 2.29315 -83.3069
rradius 112.279
rwrist -32.146
rhand -13.3466 22.9268
rfingers 7.12502
rthumb 12.7591 -6.66337
lclavicle -3.33958e-014 2.78299e-014
lhumerus -343.775 2.34935 409.783
lradius 80.5925
lwrist 44.5151
lhand -28.0671 31.9503
lfingers 7.12502
lthumb -1.45071 61.9251
rfemur -53.3826 2.24653 -5.77413
rtibia 41.6278
rfoot -19.7223 -7.40807
rtoes -33.9519
lfemur -54.8132 10.2583 4.17107
ltibia 56.967
lfoot -23.9879 3.91106
ltoes -41.0808
